PathFileType	4	(X/Y/Z)	pose_F01_0-96.trc
DataRate	CameraRate	NumFrames	NumMarkers	Units	OrigDataRate	OrigDataStartFrame	OrigNumFrames
30	30	5	21	m	30	12	96
Frame#	Time	CHip			RHip			RKnee			RAnkle			RBigToe			RSmallToe			RHeel			LHip			LKnee			LAnkle			LBigToe			LSmallToe			LHeel			Neck			Nose			RShoulder			RElbow			RWrist			LShoulder			LElbow			LWrist			
		X1	Y1	Z1	X2	Y2	Z2	X3	Y3	Z3	X4	Y4	Z4	X5	Y5	Z5	X6	Y6	Z6	X7	Y7	Z7	X8	Y8	Z8	X9	Y9	Z9	X10	Y10	Z10	X11	Y11	Z11	X12	Y12	Z12	X13	Y13	Z13	X14	Y14	Z14	X15	Y15	Z15	X16	Y16	Z16	X17	Y17	Z17	X18	Y18	Z18	X19	Y19	Z19	X20	Y20	Z20	X21	Y21	Z21	
12	0.4	-0.2133967751788849	1.87980744684525	-0.5470253953459233	-0.22329532423543588	1.8753084092290366	-0.47911745619013874	-0.20924186466749292	1.7265784111721563	-0.4703489571934241	-0.20843989377981378	1.582681270142389	-0.45856873627978023	-0.2400986392099686	1.5400262877440654	-0.42006585500205645	-0.24531590419069169	1.5736411494756186	-0.39387929191225246	-0.20387860985543954	1.5716875135954635	-0.47569350121955273	-0.20004221913157366	1.8829103251750212	-0.6168769821860335	-0.1953839838983065	1.7276815313613354	-0.6038035402653538	-0.19393936302387563	1.5771658392685712	-0.5840351729152978	-0.2143649519975831	1.5327704696392102	-0.5840114640721159	-0.2060094504045317	1.5380064103443976	-0.6099886560255993	-0.1889274983440288	1.5639815073583123	-0.5663343648974797	-0.20450515951414855	2.0539532790680273	-0.5705270844824769	-0.22514175939228617	2.121164880428974	-0.5585275718002607	-0.21579855336497308	2.0469668698356633	-0.47370437037100815	-0.23147287855803564	2.005175160557644	-0.31722944694309263	-2.5529563040652947	1.9311462876274708	2.7746469473357247	-0.18768112398728048	2.062124843253233	-0.6663551755406367	-0.14494062937684968	2.0374029310076174	-0.8190438883903643	-0.10856633844610121	1.998062632429816	-0.9408488455288974
13	0.43333333333333335	-0.2133967751788849	1.87980744684525	-0.5470253953459233	-0.22329532423543588	1.8753084092290366	-0.47911745619013874	-0.20924186466749292	1.7265784111721563	-0.4703489571934241	-0.20843989377981378	1.582681270142389	-0.45856873627978023	-0.2400986392099686	1.5400262877440654	-0.42006585500205645	-0.24531590419069169	1.5736411494756186	-0.39387929191225246	-0.20387860985543954	1.5716875135954635	-0.47569350121955273	-0.20004221913157366	1.8829103251750212	-0.6168769821860335	-0.1953839838983065	1.7276815313613354	-0.6038035402653538	-0.19393936302387563	1.5771658392685712	-0.5840351729152978	-0.2143649519975831	1.5327704696392102	-0.5840114640721159	-0.2060094504045317	1.5380064103443976	-0.6099886560255993	-0.1889274983440288	1.5639815073583123	-0.5663343648974797	-0.20450515951414855	2.0539532790680273	-0.5705270844824769	-0.22514175939228617	2.121164880428974	-0.5585275718002607	-0.21579855336497308	2.0469668698356633	-0.47370437037100815	-0.23147287855803564	2.005175160557644	-0.31722944694309263	-2.5529563040652947	1.9311462876274708	2.7746469473357247	-0.18768112398728048	2.062124843253233	-0.6663551755406367	-0.14494062937684968	2.0374029310076174	-0.8190438883903643	-0.10856633844610121	1.998062632429816	-0.9408488455288974
14	0.4666666666666667	-0.2133967751788849	1.87980744684525	-0.5470253953459233	-0.22329532423543588	1.8753084092290366	-0.47911745619013874	-0.20924186466749292	1.7265784111721563	-0.4703489571934241	-0.20843989377981378	1.582681270142389	-0.45856873627978023	-0.2400986392099686	1.5400262877440654	-0.42006585500205645	-0.24531590419069169	1.5736411494756186	-0.39387929191225246	-0.20387860985543954	1.5716875135954635	-0.47569350121955273	-0.20004221913157366	1.8829103251750212	-0.6168769821860335	-0.1953839838983065	1.7276815313613354	-0.6038035402653538	-0.19393936302387563	1.5771658392685712	-0.5840351729152978	-0.2143649519975831	1.5327704696392102	-0.5840114640721159	-0.2060094504045317	1.5380064103443976	-0.6099886560255993	-0.1889274983440288	1.5639815073583123	-0.5663343648974797	-0.20450515951414855	2.0539532790680273	-0.5705270844824769	-0.22514175939228617	2.121164880428974	-0.5585275718002607	-0.21579855336497308	2.0469668698356633	-0.47370437037100815	-0.23147287855803564	2.005175160557644	-0.31722944694309263	-2.5529563040652947	1.9311462876274708	2.7746469473357247	-0.18768112398728048	2.062124843253233	-0.6663551755406367	-0.14494062937684968	2.0374029310076174	-0.8190438883903643	-0.10856633844610121	1.998062632429816	-0.9408488455288974
15	0.5	-0.2131822011501696	1.8810064597266236	-0.5472739467027636	-0.22417486761015845	1.8754528155686576	-0.48234947130353456	-0.21001989596516218	1.7253069939842742	-0.47356520747004577	-0.20912508261109308	1.5805429770997825	-0.46233619646972957	-0.24133091535429285	1.5409675998659669	-0.4189333238297057	-0.24531590419069169	1.5736411494756186	-0.39387929191225246	-0.20379596763918165	1.570349898873228	-0.47634165966330166	-0.19982790153844596	1.8841697616923845	-0.6170833319941726	-0.19534149296518408	1.7305040519487123	-0.6041022343611755	-0.1927826700720227	1.5787369457161795	-0.5814195807282568	-0.2164500782513954	1.5327889812081765	-0.5818825611057548	-0.20782206637211834	1.5391453156526664	-0.6084259766826788	-0.18886355971912402	1.566745378170328	-0.5666633177665622	-0.2045612368395015	2.053985520563355	-0.5703929811431607	-0.2251239428478151	2.1225615029826064	-0.559117392674618	-0.21780604639665418	2.048267680115403	-0.4719391563363865	-0.227642100891355	1.9962983253677904	-0.3186148344491367	-0.23552717657028688	1.9576044589456387	-0.14885335815152081	-0.18772901361182853	2.062171077337895	-0.6662177813699989	-0.1521745903741756	2.0286440659848743	-0.8004141241133899	-0.10856633844610121	1.998062632429816	-0.9408488455288974
16	0.5333333333333333	-0.21103892800001162	1.8836873587944527	-0.5499582842019931	-0.22295215581061975	1.8791824334109488	-0.4799054067598502	-0.20896272421594608	1.727720902048733	-0.47071360503477655	-0.21022907680072145	1.5817165210676447	-0.456655287542181	-0.24256319149861713	1.5419089119878684	-0.41780079265735504	-0.24531590419069169	1.5736411494756186	-0.39387929191225246	-0.2059045000472254	1.571359616434336	-0.47382687253174827	-0.19779334300967844	1.885722746393405	-0.6196020100755862	-0.19239843813925497	1.7303672795348224	-0.6032254165631374	-0.19189805176484792	1.5773755491131514	-0.5862116274334291	-0.21669732448445417	1.5313573366968956	-0.5812537895533185	-0.20906259175681785	1.5378363020689712	-0.6109117172241627	-0.18910170075360735	1.5651980497175504	-0.5660617113282256	-0.2045521639207378	2.055290755529054	-0.5709126676361936	-0.22415524781440113	2.125997469648017	-0.5563086822873397	-0.21775462665989612	2.048423807898591	-0.4721024712564526	-0.2307307375657575	1.9885829210670312	-0.341252704163713	-0.2393480586565814	1.9374708727076628	-0.217526268505637	-0.1897699164562272	2.060833560003812	-0.6635682944687248	-0.15564143100960945	2.01545298043469	-0.7881564532689253	-0.12000706259381055	1.9658924890991822	-0.9060003265045289
